<?xml version="1.0" encoding="UTF-8" standalone="no"?>
<svg
   xmlns:dc="http://purl.org/dc/elements/1.1/"
   xmlns:cc="http://creativecommons.org/ns#"
   xmlns:rdf="http://www.w3.org/1999/02/22-rdf-syntax-ns#"
   xmlns:svg="http://www.w3.org/2000/svg"
   xmlns="http://www.w3.org/2000/svg"
   xmlns:sodipodi="http://sodipodi.sourceforge.net/DTD/sodipodi-0.dtd"
   xmlns:inkscape="http://www.inkscape.org/namespaces/inkscape"
   width="210mm"
   height="297mm"
   viewBox="0 0 210 297"
   version="1.1"
   id="svg8"
   inkscape:version="1.0.1 (3bc2e813f5, 2020-09-07)"
   sodipodi:docname="ndnh 2.svg"
   inkscape:export-filename="E:\Dropbox\AVTokyo2022\images\original\ndnh2 full size.png"
   inkscape:export-xdpi="96"
   inkscape:export-ydpi="96">
  <defs
     id="defs2" />
  <sodipodi:namedview
     id="base"
     pagecolor="#ffffff"
     bordercolor="#666666"
     borderopacity="1.0"
     inkscape:pageopacity="0.0"
     inkscape:pageshadow="2"
     inkscape:zoom="0.7"
     inkscape:cx="284.19017"
     inkscape:cy="656.85322"
     inkscape:document-units="mm"
     inkscape:current-layer="layer1"
     inkscape:document-rotation="0"
     showgrid="false"
     inkscape:window-width="2880"
     inkscape:window-height="1526"
     inkscape:window-x="-11"
     inkscape:window-y="826"
     inkscape:window-maximized="1" />
  <metadata
     id="metadata5">
    <rdf:RDF>
      <cc:Work
         rdf:about="">
        <dc:format>image/svg+xml</dc:format>
        <dc:type
           rdf:resource="http://purl.org/dc/dcmitype/StillImage" />
        <dc:title></dc:title>
      </cc:Work>
    </rdf:RDF>
  </metadata>
  <g
     inkscape:label="Layer 1"
     inkscape:groupmode="layer"
     id="layer1">
    <g
       id="g32"
       transform="matrix(0.35277777,0,0,-0.35277777,-180.84493,121.87559)"
       style="fill:none;stroke:#000000;stroke-opacity:1">
      <path
         d="M 0,0 H 73.872 L 86.19,-12.313 V -61.562 H 61.562 v 49.249 H 24.622 V -61.562 H 0 Z"
         style="fill:none;fill-opacity:1;fill-rule:nonzero;stroke:#000000;stroke-opacity:1"
         id="path34" />
    </g>
    <g
       id="g36"
       transform="matrix(0.35277777,0,0,-0.35277777,-180.84493,121.87559)"
       style="fill:none;stroke:#000000;stroke-opacity:1">
      <path
         d="M 0,0 H 73.872 L 86.19,-12.313 V -61.562 H 61.562 v 49.249 H 24.622 V -61.562 H 0 Z"
         style="fill:none;stroke:#000000;stroke-width:6.813;stroke-linecap:butt;stroke-linejoin:miter;stroke-miterlimit:4;stroke-dasharray:none;stroke-opacity:1"
         id="path38" />
    </g>
    <path
       d="m -124.3777,126.2192 h -13.03161 v 13.03267 h 13.03161 z m -17.37536,-4.34375 h 21.71876 l 4.34375,4.34375 v 13.03267 l -4.34375,4.34163 h -21.71876 l -4.34235,-4.34163 V 126.2192 Z"
       style="fill:none;fill-opacity:1;fill-rule:nonzero;stroke:#000000;stroke-width:0.352778;stroke-opacity:1"
       id="path40" />
    <path
       d="m -124.3777,126.2192 h -13.03161 v 13.03267 h 13.03161 z m -17.37536,-4.34375 h 21.71876 l 4.34375,4.34375 v 13.03267 l -4.34375,4.34163 h -21.71876 l -4.34235,-4.34163 V 126.2192 Z"
       style="fill:none;stroke:#000000;stroke-width:2.40348;stroke-linecap:butt;stroke-linejoin:miter;stroke-miterlimit:4;stroke-dasharray:none;stroke-opacity:1"
       id="path42" />
    <path
       d="m -72.253022,126.24989 h -13.03161 v 13.03055 h 13.03161 z m -17.37501,-4.3434 h 17.37501 v -8.68715 h 8.687153 v 30.40274 h -26.062163 l -4.342695,-4.34164 v -13.03055 z"
       style="fill:none;fill-opacity:1;fill-rule:nonzero;stroke:#000000;stroke-width:0.352778;stroke-opacity:1"
       id="path44" />
    <path
       d="m -72.253022,126.24989 h -13.03161 v 13.03055 h 13.03161 z m -17.37501,-4.3434 h 17.37501 v -8.68715 h 8.687153 v 30.40274 h -26.062163 l -4.342695,-4.34164 v -13.03055 z"
       style="fill:none;stroke:#000000;stroke-width:2.40348;stroke-linecap:butt;stroke-linejoin:miter;stroke-miterlimit:4;stroke-dasharray:none;stroke-opacity:1"
       id="path46" />
    <g
       id="g48"
       transform="matrix(0.35277777,0,0,-0.35277777,-54.893004,121.87559)"
       style="fill:none;stroke:#000000;stroke-opacity:1">
      <path
         d="M 0,0 H 24.628 V -12.313 L 36.94,0 H 73.877 V -12.313 H 43.096 L 24.628,-30.781 V -61.562 H 0 Z"
         style="fill:none;fill-opacity:1;fill-rule:nonzero;stroke:#000000;stroke-opacity:1"
         id="path50" />
    </g>
    <g
       id="g52"
       transform="matrix(0.35277777,0,0,-0.35277777,-54.893004,121.87559)"
       style="fill:none;stroke:#000000;stroke-opacity:1">
      <path
         d="M 0,0 H 24.628 V -12.313 L 36.94,0 H 73.877 V -12.313 H 43.096 L 24.628,-30.781 V -61.562 H 0 Z"
         style="fill:none;stroke:#000000;stroke-width:6.813;stroke-linecap:butt;stroke-linejoin:miter;stroke-miterlimit:4;stroke-dasharray:none;stroke-opacity:1"
         id="path54" />
    </g>
    <path
       d="m -11.456359,113.21934 h 8.6882109 v 4.3434 h -8.6882109 z m -4.343753,8.68715 h 13.0316111 v 17.37395 h 8.686447 v 4.34164 H -20.142453 v -4.34164 h 8.686094 v -13.03055 h -4.343753 z"
       style="fill:none;fill-opacity:1;fill-rule:nonzero;stroke:#000000;stroke-width:0.352778;stroke-opacity:1"
       id="path56" />
    <path
       d="m -11.456359,113.21934 h 8.6882109 v 4.3434 h -8.6882109 z m -4.343753,8.68715 h 13.0316111 v 17.37395 h 8.686447 v 4.34164 H -20.142453 v -4.34164 h 8.686094 v -13.03055 h -4.343753 z"
       style="fill:none;stroke:#000000;stroke-width:2.40348;stroke-linecap:butt;stroke-linejoin:miter;stroke-miterlimit:4;stroke-dasharray:none;stroke-opacity:1"
       id="path58" />
    <g
       id="g60"
       transform="matrix(0.35277777,0,0,-0.35277777,10.276762,121.87559)"
       style="fill:none;stroke:#000000;stroke-opacity:1">
      <path
         d="M 0,0 H 73.875 L 86.187,-12.313 V -61.562 H 61.562 v 49.249 H 24.625 V -61.562 H 0 Z"
         style="fill:none;fill-opacity:1;fill-rule:nonzero;stroke:#000000;stroke-opacity:1"
         id="path62" />
    </g>
    <g
       id="g64"
       transform="matrix(0.35277777,0,0,-0.35277777,10.276762,121.87559)"
       style="fill:none;stroke:#000000;stroke-opacity:1">
      <path
         d="M 0,0 H 73.875 L 86.187,-12.313 V -61.562 H 61.562 v 49.249 H 24.625 V -61.562 H 0 Z"
         style="fill:none;stroke:#000000;stroke-width:6.813;stroke-linecap:butt;stroke-linejoin:miter;stroke-miterlimit:4;stroke-dasharray:none;stroke-opacity:1"
         id="path66" />
    </g>
    <g
       id="g68"
       transform="matrix(0.35277777,0,0,-0.35277777,45.026255,113.21927)"
       style="fill:none;stroke:#000000;stroke-opacity:1">
      <path
         d="m 0,0 h 24.625 v -36.937 h 18.471 l 12.31,12.312 H 86.187 V -36.937 H 73.878 L 61.559,-49.25 86.187,-73.875 V -86.181 H 49.25 v 12.306 L 36.937,-61.562 H 24.625 V -86.181 H 0 Z"
         style="fill:none;fill-opacity:1;fill-rule:nonzero;stroke:#000000;stroke-opacity:1"
         id="path70" />
    </g>
    <g
       id="g72"
       transform="matrix(0.35277777,0,0,-0.35277777,45.026255,113.21927)"
       style="fill:none;stroke:#000000;stroke-opacity:1">
      <path
         d="m 0,0 h 24.625 v -36.937 h 18.471 l 12.31,12.312 H 86.187 V -36.937 H 73.878 L 61.559,-49.25 86.187,-73.875 V -86.181 H 49.25 v 12.306 L 36.937,-61.562 H 24.625 V -86.181 H 0 Z"
         style="fill:none;stroke:#000000;stroke-width:6.813;stroke-linecap:butt;stroke-linejoin:miter;stroke-miterlimit:4;stroke-dasharray:none;stroke-opacity:1"
         id="path74" />
    </g>
    <g
       id="g76"
       transform="matrix(0.35277777,0,0,-0.35277777,84.10493,143.6098)"
       style="fill:none;stroke:#000000;stroke-opacity:1">
      <path
         d="M 0,0 V 12.312 H 12.312 V 36.937 H 36.937 V 12.312 L 24.625,0 Z"
         style="fill:none;fill-opacity:1;fill-rule:nonzero;stroke:#000000;stroke-opacity:1"
         id="path78" />
    </g>
    <g
       id="g80"
       transform="matrix(0.35277777,0,0,-0.35277777,84.10493,143.6098)"
       style="fill:none;stroke:#000000;stroke-opacity:1">
      <path
         d="M 0,0 V 12.312 H 12.312 V 36.937 H 36.937 V 12.312 L 24.625,0 Z"
         style="fill:none;stroke:#000000;stroke-width:6.813;stroke-linecap:butt;stroke-linejoin:miter;stroke-miterlimit:4;stroke-dasharray:none;stroke-opacity:1"
         id="path82" />
    </g>
    <g
       id="g84"
       transform="matrix(0.35277777,0,0,-0.35277777,114.52411,121.87559)"
       style="fill:none;stroke:#000000;stroke-opacity:1">
      <path
         d="M 0,0 H 73.878 L 86.19,-12.313 V -61.562 H 61.565 v 49.249 H 24.625 V -61.562 H 0 Z"
         style="fill:none;fill-opacity:1;fill-rule:nonzero;stroke:#000000;stroke-opacity:1"
         id="path86" />
    </g>
    <g
       id="g88"
       transform="matrix(0.35277777,0,0,-0.35277777,114.52411,121.87559)"
       style="fill:none;stroke:#000000;stroke-opacity:1">
      <path
         d="M 0,0 H 73.878 L 86.19,-12.313 V -61.562 H 61.565 v 49.249 H 24.625 V -61.562 H 0 Z"
         style="fill:none;stroke:#000000;stroke-width:6.813;stroke-linecap:butt;stroke-linejoin:miter;stroke-miterlimit:4;stroke-dasharray:none;stroke-opacity:1"
         id="path90" />
    </g>
    <path
       d="m 170.99148,126.2192 h -13.03161 v 13.03267 h 13.03161 z m -17.3743,-4.34375 h 21.7177 l 4.34482,4.34375 v 13.03267 l -4.34482,4.34163 h -21.7177 l -4.34234,-4.34163 V 126.2192 Z"
       style="fill:none;fill-opacity:1;fill-rule:nonzero;stroke:#000000;stroke-width:0.352778;stroke-opacity:1"
       id="path92" />
    <path
       d="m 170.99148,126.2192 h -13.03161 v 13.03267 h 13.03161 z m -17.3743,-4.34375 h 21.7177 l 4.34482,4.34375 v 13.03267 l -4.34482,4.34163 h -21.7177 l -4.34234,-4.34163 V 126.2192 Z"
       style="fill:none;stroke:#000000;stroke-width:2.40348;stroke-linecap:butt;stroke-linejoin:miter;stroke-miterlimit:4;stroke-dasharray:none;stroke-opacity:1"
       id="path94" />
    <g
       id="g96"
       transform="matrix(0.35277777,0,0,-0.35277777,201.39842,113.21927)"
       style="fill:none;stroke:#000000;stroke-opacity:1">
      <path
         d="M 0,0 H 24.625 V -24.625 H 73.872 L 86.187,-36.937 V -86.181 H 61.562 v 49.244 H 24.625 V -86.181 H 0 Z"
         style="fill:none;fill-opacity:1;fill-rule:nonzero;stroke:#000000;stroke-opacity:1"
         id="path98" />
    </g>
    <g
       id="g100"
       transform="matrix(0.35277777,0,0,-0.35277777,201.39842,113.21927)"
       style="fill:#000000;stroke:none;stroke-opacity:1">
      <path
         d="M 0,0 H 24.625 V -24.625 H 73.872 L 86.187,-36.937 V -86.181 H 61.562 v 49.244 H 24.625 V -86.181 H 0 Z"
         style="fill:#000000;stroke:none;stroke-width:6.813;stroke-linecap:butt;stroke-linejoin:miter;stroke-miterlimit:4;stroke-dasharray:none;stroke-opacity:1"
         id="path102" />
    </g>
    <path
       d="m 257.86583,134.90847 h -13.03161 v 4.3434 h 13.03161 z m -17.3743,-13.03302 h 21.7177 l 4.34446,4.34375 v 17.3743 h -26.06216 l -4.34376,-4.34163 v -4.3434 l 4.34376,-4.34587 h 17.3743 v -4.3434 h -17.3743 z"
       style="fill:none;fill-opacity:1;fill-rule:nonzero;stroke:#000000;stroke-width:0.352778;stroke-opacity:1"
       id="path104" />
    <path
       d="m 257.86583,134.90847 h -13.03161 v 4.3434 h 13.03161 z m -17.3743,-13.03302 h 21.7177 l 4.34446,4.34375 v 17.3743 h -26.06216 l -4.34376,-4.34163 v -4.3434 l 4.34376,-4.34587 h 17.3743 v -4.3434 h -17.3743 z"
       style="fill:none;stroke:#000000;stroke-width:2.40348;stroke-linecap:butt;stroke-linejoin:miter;stroke-miterlimit:4;stroke-dasharray:none;stroke-opacity:1"
       id="path106" />
    <g
       id="g108"
       transform="matrix(0.35277777,0,0,-0.35277777,275.24084,121.87559)"
       style="fill:none;stroke:#000000;stroke-opacity:1">
      <path
         d="M 0,0 H 73.875 V -12.313 H 12.31 V -49.256 H 73.875 V -61.562 H 0 l -12.309,12.306 v 36.943 z"
         style="fill:none;fill-opacity:1;fill-rule:nonzero;stroke:#000000;stroke-opacity:1"
         id="path110" />
    </g>
    <g
       id="g112"
       transform="matrix(0.35277777,0,0,-0.35277777,275.24084,121.87559)"
       style="fill:none;stroke:#000000;stroke-opacity:1">
      <path
         d="M 0,0 H 73.875 V -12.313 H 12.31 V -49.256 H 73.875 V -61.562 H 0 l -12.309,12.306 v 36.943 z"
         style="fill:none;stroke:#000000;stroke-width:6.813;stroke-linecap:butt;stroke-linejoin:miter;stroke-miterlimit:4;stroke-dasharray:none;stroke-opacity:1"
         id="path114" />
    </g>
    <g
       id="g116"
       transform="matrix(0.35277777,0,0,-0.35277777,305.64581,113.21927)"
       style="fill:none;stroke:#000000;stroke-opacity:1">
      <path
         d="m 0,0 h 24.625 v -36.937 h 18.472 l 12.309,12.312 H 86.19 V -36.937 H 73.878 L 61.562,-49.25 86.19,-73.875 V -86.181 H 49.253 v 12.306 L 36.937,-61.562 H 24.625 V -86.181 H 0 Z"
         style="fill:none;fill-opacity:1;fill-rule:nonzero;stroke:#000000;stroke-opacity:1"
         id="path118" />
    </g>
    <g
       id="g120"
       transform="matrix(0.35277777,0,0,-0.35277777,305.64581,113.21927)"
       style="fill:none;stroke:#000000;stroke-opacity:1">
      <path
         d="m 0,0 h 24.625 v -36.937 h 18.472 l 12.309,12.312 H 86.19 V -36.937 H 73.878 L 61.562,-49.25 86.19,-73.875 V -86.181 H 49.253 v 12.306 L 36.937,-61.562 H 24.625 V -86.181 H 0 Z"
         style="fill:none;stroke:#000000;stroke-width:6.813;stroke-linecap:butt;stroke-linejoin:miter;stroke-miterlimit:4;stroke-dasharray:none;stroke-opacity:1"
         id="path122" />
    </g>
    <path
       d="m 349.09769,134.90847 h 8.68821 v 8.68503 h -8.68821 z"
       style="fill:none;fill-opacity:1;fill-rule:nonzero;stroke:#000000;stroke-width:2.40348;stroke-linecap:butt;stroke-linejoin:miter;stroke-miterlimit:4;stroke-dasharray:none;stroke-opacity:1"
       id="path124" />
  </g>
</svg>
