<?xml version="1.0" encoding="UTF-8" standalone="no"?>
<svg
   xmlns:dc="http://purl.org/dc/elements/1.1/"
   xmlns:cc="http://creativecommons.org/ns#"
   xmlns:rdf="http://www.w3.org/1999/02/22-rdf-syntax-ns#"
   xmlns:svg="http://www.w3.org/2000/svg"
   xmlns="http://www.w3.org/2000/svg"
   xmlns:sodipodi="http://sodipodi.sourceforge.net/DTD/sodipodi-0.dtd"
   xmlns:inkscape="http://www.inkscape.org/namespaces/inkscape"
   width="297mm"
   height="210mm"
   viewBox="0 0 297 210"
   version="1.1"
   id="svg8"
   inkscape:version="1.0.1 (3bc2e813f5, 2020-09-07)"
   sodipodi:docname="skyline.svg">
  <defs
     id="defs2">
    <clipPath
       clipPathUnits="userSpaceOnUse"
       id="clipPath30">
      <path
         d="M 0,651.969 H 850.394 V 0 H 0 Z"
         id="path28" />
    </clipPath>
  </defs>
  <sodipodi:namedview
     id="base"
     pagecolor="#ffffff"
     bordercolor="#666666"
     borderopacity="1.0"
     inkscape:pageopacity="0.0"
     inkscape:pageshadow="2"
     inkscape:zoom="1.4"
     inkscape:cx="214.6871"
     inkscape:cy="469.66496"
     inkscape:document-units="mm"
     inkscape:current-layer="layer1"
     inkscape:document-rotation="0"
     showgrid="false"
     inkscape:window-width="3840"
     inkscape:window-height="2066"
     inkscape:window-x="2869"
     inkscape:window-y="-11"
     inkscape:window-maximized="1" />
  <metadata
     id="metadata5">
    <rdf:RDF>
      <cc:Work
         rdf:about="">
        <dc:format>image/svg+xml</dc:format>
        <dc:type
           rdf:resource="http://purl.org/dc/dcmitype/StillImage" />
        <dc:title></dc:title>
      </cc:Work>
    </rdf:RDF>
  </metadata>
  <g
     inkscape:label="Layer 1"
     inkscape:groupmode="layer"
     id="layer1">
    <path
       d="m 55.595749,122.09032 h -10.34415 v -0.81774 h 21.587883 v 0.81774 h -10.34415 v 34.42723 h -0.899583 z"
       style="fill:#231f20;fill-opacity:1;fill-rule:nonzero;stroke:none;stroke-width:0.352778"
       id="path22" />
    <g
       id="g32"
       transform="matrix(0.35277777,0,0,-0.35277777,101.75605,149.56631)">
      <path
         d="m 0,0 c 5.639,0 10.779,1.081 15.415,3.245 4.635,2.163 8.614,5.042 11.937,8.635 3.321,3.593 5.871,7.766 7.649,12.516 1.777,4.753 2.666,9.754 2.666,15.01 v 0.232 c 0,5.175 -0.909,10.16 -2.724,14.951 -1.816,4.79 -4.386,9.001 -7.707,12.634 -3.323,3.631 -7.321,6.548 -11.995,8.749 -4.676,2.203 -9.834,3.303 -15.473,3.303 -5.718,0 -10.876,-1.082 -15.472,-3.245 -4.598,-2.164 -8.558,-5.042 -11.88,-8.634 -3.323,-3.593 -5.873,-7.786 -7.649,-12.576 -1.778,-4.791 -2.665,-9.775 -2.665,-14.95 v -0.232 c 0,-5.177 0.906,-10.161 2.723,-14.951 1.814,-4.791 4.384,-9.002 7.707,-12.633 3.322,-3.633 7.32,-6.548 11.996,-8.751 C -10.798,1.102 -5.641,0 0,0 m -0.116,-2.318 c -6.182,0 -11.745,1.141 -16.689,3.42 -4.945,2.278 -9.176,5.349 -12.691,9.213 -3.517,3.863 -6.22,8.305 -8.113,13.33 -1.894,5.02 -2.839,10.313 -2.839,15.877 v 0.232 c 0,5.562 0.945,10.854 2.839,15.878 1.893,5.022 4.596,9.464 8.113,13.329 3.515,3.862 7.746,6.934 12.691,9.214 4.944,2.278 10.507,3.419 16.689,3.419 6.103,0 11.648,-1.141 16.632,-3.419 4.984,-2.28 9.232,-5.352 12.748,-9.214 3.515,-3.865 6.218,-8.307 8.113,-13.329 1.893,-5.024 2.84,-10.316 2.84,-15.878 v -0.232 c 0,-5.564 -0.947,-10.857 -2.84,-15.877 C 35.482,18.62 32.779,14.178 29.264,10.315 25.748,6.451 21.5,3.38 16.516,1.102 11.532,-1.177 5.987,-2.318 -0.116,-2.318"
         style="fill:#231f20;fill-opacity:1;fill-rule:nonzero;stroke:none"
         id="path34" />
    </g>
    <g
       id="g36"
       transform="matrix(0.35277777,0,0,-0.35277777,141.98789,121.27244)">
      <path
         d="M 0,0 H 2.549 V -54.821 L 58.645,0 h 3.591 L 27.004,-34.19 77.076,-101.01 H 73.947 L 25.266,-35.93 2.549,-58.066 V -81.13 H 0 Z"
         style="fill:#231f20;fill-opacity:1;fill-rule:nonzero;stroke:none"
         id="path38" />
    </g>
    <g
       id="g40"
       transform="matrix(0.35277777,0,0,-0.35277777,196.73423,137.91364)">
      <path
         d="m 0,0 -34.307,47.172 h 3.014 L 1.391,2.203 33.726,47.172 h 3.013 L 2.55,0 V -33.958 H 0 Z"
         style="fill:#231f20;fill-opacity:1;fill-rule:nonzero;stroke:none"
         id="path42" />
    </g>
    <g
       id="g44"
       transform="matrix(0.35277777,0,0,-0.35277777,244.20285,149.56631)">
      <path
         d="m 0,0 c 5.64,0 10.778,1.081 15.414,3.245 4.637,2.163 8.615,5.042 11.939,8.635 3.321,3.593 5.87,7.766 7.649,12.516 1.775,4.753 2.666,9.754 2.666,15.01 v 0.232 c 0,5.175 -0.91,10.16 -2.725,14.951 -1.816,4.79 -4.385,9.001 -7.707,12.634 -3.323,3.631 -7.321,6.548 -11.995,8.749 -4.676,2.203 -9.833,3.303 -15.472,3.303 -5.719,0 -10.876,-1.082 -15.473,-3.245 -4.598,-2.164 -8.558,-5.042 -11.879,-8.634 -3.323,-3.593 -5.873,-7.786 -7.65,-12.576 -1.778,-4.791 -2.664,-9.775 -2.664,-14.95 v -0.232 c 0,-5.177 0.906,-10.161 2.722,-14.951 1.815,-4.791 4.385,-9.002 7.708,-12.633 3.321,-3.633 7.319,-6.548 11.994,-8.751 C -10.798,1.102 -5.641,0 0,0 m -0.115,-2.318 c -6.183,0 -11.746,1.141 -16.69,3.42 -4.946,2.278 -9.175,5.349 -12.69,9.213 -3.517,3.863 -6.221,8.305 -8.113,13.33 -1.895,5.02 -2.84,10.313 -2.84,15.877 v 0.232 c 0,5.562 0.945,10.854 2.84,15.878 1.892,5.022 4.596,9.464 8.113,13.329 3.515,3.862 7.744,6.934 12.69,9.214 4.944,2.278 10.507,3.419 16.69,3.419 6.102,0 11.647,-1.141 16.631,-3.419 4.984,-2.28 9.232,-5.352 12.749,-9.214 3.514,-3.865 6.218,-8.307 8.112,-13.329 1.894,-5.024 2.84,-10.316 2.84,-15.878 v -0.232 c 0,-5.564 -0.946,-10.857 -2.84,-15.877 C 35.483,18.62 32.779,14.178 29.265,10.315 25.748,6.451 21.5,3.38 16.516,1.102 11.532,-1.177 5.987,-2.318 -0.115,-2.318"
         style="fill:#231f20;fill-opacity:1;fill-rule:nonzero;stroke:none"
         id="path46" />
    </g>
    <path
       d="M 268.2371,156.86577 H 55.589364 v -0.69673 H 268.2371 Z"
       style="fill:#231f20;fill-opacity:1;fill-rule:nonzero;stroke:none;stroke-width:0.352778"
       id="path48" />
    <g
       id="g50"
       transform="matrix(0.35277777,0,0,-0.35277777,224.82829,110.89167)">
      <path
         d="M 0,0 C -3.764,0 -7.039,2.132 -8.681,5.251 -10.323,2.132 -13.599,0 -17.361,0 -21.121,0 -24.394,2.128 -26.038,5.241 -27.684,2.128 -30.96,0 -34.723,0 -38.482,0 -41.755,2.128 -43.4,5.241 -45.047,2.128 -48.321,0 -52.085,0 -55.844,0 -59.116,2.128 -60.76,5.242 -62.403,2.128 -65.677,0 -69.437,0 -73.2,0 -76.476,2.128 -78.12,5.243 -79.765,2.128 -83.038,0 -86.798,0 -90.562,0 -93.836,2.132 -95.479,5.251 -97.121,2.132 -100.396,0 -104.16,0 c -3.762,0 -7.037,2.132 -8.68,5.251 C -114.482,2.132 -117.758,0 -121.521,0 c -3.76,0 -7.032,2.128 -8.676,5.242 C -131.843,2.128 -135.117,0 -138.881,0 v 2.324 c 4.129,0 7.488,3.356 7.488,7.48 0,0.641 0.52,1.162 1.163,1.162 0.641,0 1.23,-0.521 1.23,-1.162 0,-4.124 3.355,-7.48 7.479,-7.48 4.125,0 7.48,3.356 7.48,7.48 0,0.641 0.52,1.162 1.162,1.162 0.642,0 1.241,-0.521 1.241,-1.162 0,-4.124 3.355,-7.48 7.478,-7.48 4.124,0 7.48,3.356 7.48,7.48 0,0.641 0.52,1.162 1.162,1.162 0.642,0 1.242,-0.521 1.242,-1.162 0,-4.124 3.354,-7.48 7.478,-7.48 4.124,0 7.48,3.356 7.48,7.48 0,0.641 0.52,1.162 1.162,1.162 0.642,0 1.231,-0.521 1.231,-1.162 0,-4.124 3.36,-7.48 7.488,-7.48 4.124,0 7.481,3.356 7.481,7.48 0,0.641 0.52,1.162 1.162,1.162 0.642,0 1.231,-0.521 1.231,-1.162 0,-4.124 3.355,-7.48 7.478,-7.48 4.13,0 7.489,3.356 7.489,7.48 0,0.641 0.521,1.162 1.162,1.162 0.643,0 1.23,-0.521 1.23,-1.162 0,-4.124 3.356,-7.48 7.481,-7.48 4.13,0 7.49,3.356 7.49,7.48 0,0.641 0.52,1.162 1.162,1.162 0.641,0 1.229,-0.521 1.229,-1.162 0,-4.124 3.356,-7.48 7.481,-7.48 4.123,0 7.478,3.356 7.478,7.48 0,0.641 0.52,1.162 1.162,1.162 0.642,0 1.242,-0.521 1.242,-1.162 0,-4.124 3.355,-7.48 7.479,-7.48 z"
         style="fill:#231f20;fill-opacity:1;fill-rule:nonzero;stroke:none"
         id="path52" />
    </g>
    <g
       id="g54"
       transform="matrix(0.35277777,0,0,-0.35277777,139.63214,108.45877)">
      <path
         d="M 0,0 68.104,-0.001 C 66.563,2.218 63.932,6.48 60.811,13.49 56.324,23.567 49.922,41.534 44.897,69.896 c -0.06,0.338 0.033,0.686 0.253,0.949 0.151,0.181 0.352,0.309 0.574,0.372 l 3.414,9.29 H 44.16 c -0.576,0 -1.065,0.421 -1.149,0.991 -4.232,28.409 -6.396,61.456 -6.436,98.235 -0.245,0.037 -0.474,0.151 -0.651,0.328 -0.218,0.218 -0.341,0.514 -0.341,0.822 l 0.002,10.839 h -0.007 c -0.308,0 -0.604,0.123 -0.822,0.34 -0.218,0.218 -0.34,0.515 -0.34,0.822 l 0.001,10.709 c -0.146,0.022 -0.287,0.071 -0.414,0.144 -0.125,-0.072 -0.266,-0.123 -0.416,-0.145 l -0.001,-10.708 c 0,-0.642 -0.521,-1.162 -1.162,-1.162 h -0.006 l -10e-4,-10.839 c 0,-0.529 -0.355,-0.976 -0.839,-1.117 -0.047,-36.791 -2.221,-69.849 -6.462,-98.268 -0.085,-0.57 -0.574,-0.991 -1.149,-0.991 H 18.99 l 3.411,-9.29 c 0.222,-0.063 0.421,-0.191 0.573,-0.372 0.22,-0.263 0.314,-0.611 0.254,-0.949 C 18.195,41.534 11.787,23.567 7.298,13.49 4.176,6.481 1.543,2.219 0,0 m 70.438,-2.326 -72.771,10e-4 c -0.458,0 -0.873,0.269 -1.061,0.685 -0.187,0.418 -0.112,0.907 0.191,1.249 0.036,0.039 3.684,4.244 8.461,15.014 4.356,9.822 10.557,27.24 15.496,54.651 -0.117,0.118 -0.212,0.261 -0.271,0.425 l -4.249,11.57 c -0.131,0.356 -0.08,0.754 0.138,1.065 0.217,0.312 0.573,0.497 0.953,0.497 h 5.639 c 4.17,28.373 6.286,61.355 6.291,98.052 0,0.529 0.353,0.976 0.837,1.116 l 0.002,10.885 c 0,0.642 0.52,1.162 1.162,1.162 h 0.005 l 0.002,10.696 c 0,0.585 0.432,1.069 0.993,1.151 l 0.002,10.647 c 0,0.642 0.521,1.162 1.162,1.162 h 1.169 c 0.308,0 0.604,-0.122 0.822,-0.34 0.218,-0.218 0.34,-0.514 0.34,-0.822 L 35.75,205.892 c 0.245,-0.037 0.474,-0.15 0.651,-0.328 0.218,-0.218 0.341,-0.514 0.341,-0.822 L 36.74,194.046 h 0.007 c 0.309,0 0.604,-0.122 0.822,-0.34 0.218,-0.218 0.34,-0.514 0.34,-0.822 l -0.002,-10.851 c 0.245,-0.037 0.475,-0.151 0.652,-0.328 0.217,-0.218 0.34,-0.514 0.34,-0.822 -0.004,-36.698 2.103,-69.681 6.264,-98.052 h 5.64 c 0.379,0 0.735,-0.185 0.953,-0.497 0.217,-0.312 0.268,-0.709 0.137,-1.066 l -4.252,-11.57 c -0.06,-0.163 -0.154,-0.307 -0.273,-0.424 4.934,-27.411 11.128,-44.829 15.483,-54.652 4.774,-10.77 8.421,-14.975 8.458,-15.016 0.301,-0.342 0.376,-0.832 0.187,-1.248 -0.188,-0.416 -0.601,-0.684 -1.058,-0.684"
         style="fill:#231f20;fill-opacity:1;fill-rule:nonzero;stroke:none"
         id="path56" />
    </g>
    <g
       id="g58"
       transform="matrix(0.35277777,0,0,-0.35277777,37.987517,139.77193)">
      <path
         d="m 0,0 h -2.324 v 126.308 c 0,0.642 0.52,1.162 1.162,1.162 h 1.744 v 1.789 c 0,0.641 0.52,1.162 1.162,1.162 h 19.743 c 0.642,0 1.162,-0.521 1.162,-1.162 v -1.789 h 1.745 c 0.642,0 1.162,-0.52 1.162,-1.162 v -23.477 h 1.971 v 54.513 c 0,0.642 0.52,1.163 1.162,1.163 h 25.559 c 0.642,0 1.162,-0.521 1.162,-1.163 v -48.463 h 1.108 v 66.87 c 0,0.643 0.52,1.163 1.162,1.163 h 1.747 v 1.748 c 0,0.642 0.52,1.163 1.162,1.163 H 80.33 c 0.642,0 1.162,-0.521 1.162,-1.163 v -1.748 h 1.745 c 0.642,0 1.162,-0.52 1.162,-1.163 v -59.498 h 1.6 v 22.216 c 0,0.642 0.52,1.162 1.162,1.162 h 1.748 v 4.118 c 0,0.642 0.52,1.162 1.162,1.162 h 19.74 c 0.642,0 1.162,-0.52 1.162,-1.162 v -4.118 h 1.747 c 0.642,0 1.162,-0.52 1.162,-1.162 v -16.67 h 2.541 v 7.394 c 0,0.642 0.521,1.162 1.162,1.162 h 1.745 v 1.79 c 0,0.641 0.52,1.162 1.162,1.162 h 19.742 c 0.642,0 1.163,-0.521 1.163,-1.162 v -1.79 h 1.745 c 0.642,0 1.162,-0.52 1.162,-1.162 v -11.972 h 11.763 c 0.642,0 1.162,-0.52 1.162,-1.162 v -13.228 h 5.218 v -2.324 h -6.38 c -0.641,0 -1.162,0.52 -1.162,1.162 v 13.227 h -11.763 c -0.642,0 -1.163,0.521 -1.163,1.163 v 11.972 h -1.745 c -0.641,0 -1.162,0.521 -1.162,1.162 v 1.789 h -17.418 v -1.789 c 0,-0.641 -0.52,-1.162 -1.162,-1.162 h -1.744 v -7.394 c 0,-0.642 -0.52,-1.162 -1.163,-1.162 h -4.865 c -0.642,0 -1.162,0.52 -1.162,1.162 v 16.67 h -1.747 c -0.642,0 -1.163,0.52 -1.163,1.162 v 4.118 H 91.233 v -4.118 c 0,-0.642 -0.52,-1.162 -1.162,-1.162 h -1.748 v -22.216 c 0,-0.642 -0.52,-1.162 -1.162,-1.162 h -3.924 c -0.642,0 -1.162,0.52 -1.162,1.162 v 59.498 H 80.33 c -0.642,0 -1.163,0.52 -1.163,1.162 V 177.5 H 61.751 v -1.749 c 0,-0.642 -0.52,-1.162 -1.162,-1.162 h -1.747 v -66.87 c 0,-0.643 -0.52,-1.162 -1.162,-1.162 h -3.432 c -0.642,0 -1.163,0.519 -1.163,1.162 v 48.463 H 29.851 v -54.513 c 0,-0.642 -0.52,-1.162 -1.162,-1.162 h -4.295 c -0.642,0 -1.162,0.52 -1.162,1.162 v 23.477 h -1.745 c -0.642,0 -1.162,0.52 -1.162,1.162 v 1.789 H 2.906 v -1.789 c 0,-0.642 -0.521,-1.162 -1.162,-1.162 H 0 Z"
         style="fill:#231f20;fill-opacity:1;fill-rule:nonzero;stroke:none"
         id="path60" />
    </g>
    <g
       id="g62"
       transform="matrix(0.35277777,0,0,-0.35277777,107.17331,110.48171)">
      <path
         d="m 0,0 h -2.324 v 31.311 c 0,0.641 0.52,1.162 1.162,1.162 h 1.743 v 1.788 c 0,0.642 0.521,1.162 1.163,1.162 h 19.743 c 0.642,0 1.162,-0.52 1.162,-1.162 v -1.788 h 1.745 c 0.642,0 1.162,-0.521 1.162,-1.162 V 7.833 h 1.97 v 54.514 c 0,0.641 0.521,1.162 1.163,1.162 h 25.559 c 0.642,0 1.162,-0.521 1.162,-1.162 V 13.883 h 1.108 v 40.345 c 0,0.642 0.52,1.162 1.162,1.162 h 1.747 v 1.749 c 0,0.641 0.52,1.162 1.162,1.162 H 80.33 c 0.641,0 1.162,-0.521 1.162,-1.162 V 55.39 h 1.745 c 0.642,0 1.162,-0.52 1.162,-1.162 V 21.256 h 13.37 V 18.931 H 83.237 c -0.642,0 -1.162,0.52 -1.162,1.162 V 53.065 H 80.33 c -0.642,0 -1.163,0.521 -1.163,1.163 v 1.749 H 61.751 v -1.749 c 0,-0.642 -0.521,-1.163 -1.162,-1.163 H 58.842 V 12.721 c 0,-0.642 -0.52,-1.162 -1.162,-1.162 h -3.432 c -0.643,0 -1.163,0.52 -1.163,1.162 V 61.185 H 29.851 V 6.671 c 0,-0.642 -0.52,-1.162 -1.162,-1.162 h -4.295 c -0.642,0 -1.162,0.52 -1.162,1.162 v 23.476 h -1.745 c -0.642,0 -1.162,0.521 -1.162,1.164 v 1.788 H 2.906 v -1.788 c 0,-0.643 -0.521,-1.164 -1.162,-1.164 H 0 Z"
         style="fill:#231f20;fill-opacity:1;fill-rule:nonzero;stroke:none"
         id="path64" />
    </g>
    <path
       d="m 179.52514,108.95855 h -0.82021 V 74.432192 h 0.82021 z"
       style="fill:#231f20;fill-opacity:1;fill-rule:nonzero;stroke:none;stroke-width:0.352778"
       id="path66" />
    <path
       d="M 185.07821,108.95714 H 184.258 V 74.432192 h 0.82021 z"
       style="fill:#231f20;fill-opacity:1;fill-rule:nonzero;stroke:none;stroke-width:0.352778"
       id="path68" />
    <g
       id="g70"
       transform="matrix(0.35277777,0,0,-0.35277777,197.37777,101.6454)">
      <path
         d="m 0,0 c -14.566,0 -28.339,8.624 -39.831,24.939 -5.765,8.185 -9.637,16.45 -11.576,21.05 -1.576,-6.32 -5.971,-18.833 -17.16,-26.927 l -1.362,1.883 c 14.355,10.384 16.985,29.077 17.009,29.264 0.07,0.534 0.498,0.949 1.033,1.003 0.533,0.052 1.037,-0.264 1.216,-0.772 C -50.502,49.959 -33.429,2.324 0,2.324 Z"
         style="fill:#231f20;fill-opacity:1;fill-rule:nonzero;stroke:none"
         id="path72" />
    </g>
    <g
       id="g74"
       transform="matrix(0.35277777,0,0,-0.35277777,202.99191,101.6454)">
      <path
         d="m 0,0 c -14.566,0 -28.339,8.624 -39.831,24.939 -5.765,8.185 -9.636,16.45 -11.576,21.05 -1.576,-6.32 -5.97,-18.833 -17.159,-26.927 l -1.363,1.883 c 14.356,10.384 16.985,29.077 17.009,29.264 0.071,0.534 0.499,0.949 1.033,1.003 0.533,0.052 1.038,-0.264 1.216,-0.772 C -50.502,49.959 -33.428,2.324 0,2.324 Z"
         style="fill:#231f20;fill-opacity:1;fill-rule:nonzero;stroke:none"
         id="path76" />
    </g>
    <path
       d="m 184.66828,81.417552 h -5.55307 v -0.81986 h 5.55307 z"
       style="fill:#231f20;fill-opacity:1;fill-rule:nonzero;stroke:none;stroke-width:0.352778"
       id="path78" />
    <path
       d="m 231.96661,103.10738 h -70.82649 v -0.81985 h 70.82649 z"
       style="fill:#231f20;fill-opacity:1;fill-rule:nonzero;stroke:none;stroke-width:0.352778"
       id="path80" />
    <path
       d="m 184.66828,97.497162 h -5.34634 v -0.81986 h 5.34634 z"
       style="fill:#231f20;fill-opacity:1;fill-rule:nonzero;stroke:none;stroke-width:0.352778"
       id="path82" />
    <path
       d="m 221.11234,109.73255 h -0.81985 V 74.432552 h 0.81985 z"
       style="fill:#231f20;fill-opacity:1;fill-rule:nonzero;stroke:none;stroke-width:0.352778"
       id="path84" />
    <path
       d="m 215.55962,108.95855 h -0.81985 V 74.432192 h 0.81985 z"
       style="fill:#231f20;fill-opacity:1;fill-rule:nonzero;stroke:none;stroke-width:0.352778"
       id="path86" />
    <g
       id="g88"
       transform="matrix(0.35277777,0,0,-0.35277777,202.43967,101.6454)">
      <path
         d="m 0,0 v 2.324 c 33.448,0 50.503,47.635 50.672,48.116 0.178,0.508 0.69,0.812 1.215,0.772 0.534,-0.054 0.962,-0.469 1.034,-1.002 C 52.945,50.022 55.6,31.311 69.93,20.945 L 68.567,19.062 C 57.378,27.156 52.984,39.669 51.408,45.989 49.468,41.389 45.596,33.124 39.831,24.939 28.34,8.624 14.566,0 0,0"
         style="fill:#231f20;fill-opacity:1;fill-rule:nonzero;stroke:none"
         id="path90" />
    </g>
    <g
       id="g92"
       transform="matrix(0.35277777,0,0,-0.35277777,196.82553,101.6454)">
      <path
         d="m 0,0 v 2.324 c 33.448,0 50.502,47.635 50.671,48.116 0.178,0.508 0.687,0.812 1.215,0.772 0.535,-0.054 0.963,-0.469 1.034,-1.002 0.024,-0.188 2.68,-18.899 17.009,-29.265 L 68.566,19.062 C 57.377,27.156 52.983,39.669 51.407,45.989 49.467,41.389 45.596,33.124 39.831,24.939 28.339,8.624 14.566,0 0,0"
         style="fill:#231f20;fill-opacity:1;fill-rule:nonzero;stroke:none"
         id="path94" />
    </g>
    <path
       d="m 220.70242,81.417552 h -5.55273 v -0.81986 h 5.55273 z"
       style="fill:#231f20;fill-opacity:1;fill-rule:nonzero;stroke:none;stroke-width:0.352778"
       id="path96" />
    <path
       d="m 220.49569,97.497162 h -5.346 v -0.81986 h 5.346 z"
       style="fill:#231f20;fill-opacity:1;fill-rule:nonzero;stroke:none;stroke-width:0.352778"
       id="path98" />
    <g
       id="g100"
       transform="matrix(0.35277777,0,0,-0.35277777,95.705277,107.43314)">
      <path
         d="m 0,0 h -2.324 v 36.313 h -5.214 c -3.936,0 -6.215,0.441 -8.129,1.571 -0.473,0.279 -0.685,0.85 -0.51,1.37 0.175,0.519 0.688,0.836 1.234,0.785 0.012,-0.001 1.183,-0.134 2.756,-0.134 1.861,0 6.194,2.106 9.863,4.295 v 8.961 h -5.214 c -3.957,0 -6.237,0.442 -8.134,1.573 -0.472,0.283 -0.682,0.856 -0.503,1.376 0.178,0.52 0.694,0.847 1.242,0.776 0.012,-0.001 1.179,-0.144 2.746,-0.144 1.855,0 6.295,2.166 9.863,4.296 v 8.773 h -5.214 c -4.002,0 -6.424,0.789 -8.359,2.723 -0.363,0.362 -0.445,0.918 -0.203,1.369 0.241,0.451 0.749,0.699 1.253,0.592 0.011,-0.002 1.142,-0.224 2.66,-0.224 6.365,0 18.874,8.857 24.647,13.577 0.096,0.089 0.208,0.161 0.332,0.214 0.4,0.171 0.867,0.098 1.201,-0.175 5.75,-4.709 18.314,-13.615 24.707,-13.615 1.517,0 2.649,0.222 2.66,0.223 0.501,0.107 1.011,-0.141 1.252,-0.592 0.242,-0.452 0.16,-1.007 -0.202,-1.37 -1.936,-1.933 -4.358,-2.722 -8.36,-2.722 h -5.577 v -8.668 c 2.456,-1.474 7.797,-4.401 10.051,-4.401 1.555,0 2.735,0.143 2.747,0.144 0.548,0.07 1.063,-0.258 1.241,-0.777 0.178,-0.52 -0.032,-1.092 -0.503,-1.375 -1.897,-1.131 -4.177,-1.573 -8.134,-1.573 h -5.402 v -8.855 c 2.456,-1.475 7.797,-4.401 10.051,-4.401 1.561,0 2.745,0.133 2.757,0.134 0.549,0.056 1.06,-0.266 1.234,-0.785 0.174,-0.521 -0.039,-1.091 -0.511,-1.37 -1.914,-1.13 -4.193,-1.571 -8.129,-1.571 H 28.473 V 10 h -2.325 v 27.476 c 0,0.641 0.521,1.162 1.163,1.162 h 6.564 c 0.186,0 0.368,0.001 0.545,0.003 -3.295,1.333 -6.876,3.504 -7.631,3.968 -0.377,0.195 -0.641,0.583 -0.641,1.031 v 10.683 c 0,0.642 0.521,1.162 1.163,1.162 h 6.564 c 0.177,0 0.35,10e-4 0.519,0.003 -3.288,1.334 -6.852,3.494 -7.605,3.959 -0.377,0.195 -0.641,0.583 -0.641,1.03 v 10.497 c 0,0.641 0.521,1.162 1.163,1.162 h 6.739 c 0.809,0 1.528,0.031 2.175,0.098 C 28.157,73.951 16.532,82.878 13.25,85.499 9.969,82.879 -1.652,73.952 -9.711,72.234 c 0.646,-0.067 1.365,-0.098 2.173,-0.098 h 6.376 C -0.521,72.136 0,71.615 0,70.974 V 60.382 c 0,-0.404 -0.21,-0.78 -0.556,-0.991 -1.258,-0.769 -4.503,-2.686 -7.498,-3.903 0.168,-0.002 0.341,-0.003 0.516,-0.003 h 6.376 C -0.521,55.485 0,54.965 0,54.323 V 43.545 c 0,-0.405 -0.211,-0.78 -0.557,-0.991 -1.263,-0.772 -4.526,-2.697 -7.527,-3.913 0.178,-0.002 0.359,-0.003 0.546,-0.003 h 6.376 C -0.521,38.638 0,38.117 0,37.476 Z"
         style="fill:#231f20;fill-opacity:1;fill-rule:nonzero;stroke:none"
         id="path102" />
    </g>
    <g
       id="g104"
       transform="matrix(0.35277777,0,0,-0.35277777,268.21273,156.51748)">
      <path
         d="m 0,0 h -2.324 v 171.593 h -1.7 c -0.642,0 -1.163,0.52 -1.163,1.162 v 1.743 h -17.126 v -1.743 c 0,-0.642 -0.521,-1.162 -1.164,-1.162 h -1.707 v -23.118 c 0,-0.642 -0.519,-1.163 -1.162,-1.163 h -4.23 c -0.643,0 -1.162,0.521 -1.162,1.163 v 53.699 h -22.861 v -71.689 c 0,-0.308 -0.123,-0.603 -0.34,-0.821 -0.218,-0.219 -0.514,-0.341 -0.822,-0.341 h -10e-4 l -17.497,0.01 c -0.64,0 -1.161,0.521 -1.161,1.162 v 34.687 c 0,0.642 0.521,1.162 1.162,1.162 h 6.565 c 1.72,0 3.04,0.817 4.182,1.756 -3.591,0.345 -10.211,4.353 -11.269,5.006 -0.376,0.195 -0.64,0.582 -0.64,1.029 v 8.825 c 0,0.642 0.521,1.162 1.162,1.162 h 6.565 c 1.447,0 2.605,0.378 3.6,0.898 -3.68,0.668 -9.684,4.304 -10.687,4.923 -0.376,0.195 -0.64,0.582 -0.64,1.03 v 8.637 c 0,0.641 0.521,1.162 1.162,1.162 h 6.74 c 1.861,0 3.247,0.732 4.406,1.675 -7.972,0.213 -21.605,10.673 -25.205,13.548 -3.596,-2.876 -17.208,-13.336 -25.193,-13.549 1.159,-0.942 2.544,-1.674 4.405,-1.674 h 6.376 c 0.641,0 1.162,-0.521 1.162,-1.162 v -8.732 c 0,-0.405 -0.211,-0.781 -0.557,-0.991 -1.72,-1.052 -7.152,-4.246 -10.582,-4.868 0.995,-0.519 2.152,-0.897 3.601,-0.897 h 6.376 c 0.641,0 1.162,-0.52 1.162,-1.162 v -8.919 c 0,-0.405 -0.211,-0.781 -0.557,-0.992 -1.823,-1.112 -7.812,-4.627 -11.164,-4.949 1.141,-0.939 2.46,-1.756 4.183,-1.756 l 6.394,-0.104 c 0.635,-0.011 1.144,-0.527 1.144,-1.162 v -30.962 h -2.325 v 29.82 l -5.233,0.084 c -3.133,0 -5.221,1.877 -6.745,3.248 -0.508,0.458 -0.988,0.889 -1.365,1.112 -0.473,0.278 -0.685,0.849 -0.511,1.37 0.175,0.521 0.697,0.842 1.235,0.785 0.012,-0.002 1.183,-0.135 2.756,-0.135 1.859,0 6.192,2.106 9.863,4.297 v 7.101 h -5.213 c -3.324,0 -5.475,1.552 -7.044,2.686 -0.39,0.281 -0.748,0.542 -1.091,0.746 -0.472,0.282 -0.682,0.856 -0.503,1.375 0.178,0.519 0.694,0.849 1.242,0.777 0.012,-0.001 1.179,-0.144 2.746,-0.144 2.102,0 6.945,2.559 9.863,4.296 v 6.913 h -5.213 c -3.89,0 -6.186,2.355 -7.862,4.074 -0.171,0.176 -0.337,0.346 -0.499,0.508 -0.362,0.362 -0.444,0.919 -0.203,1.37 0.242,0.452 0.75,0.692 1.253,0.592 0.012,-0.003 1.143,-0.224 2.661,-0.224 6.388,0 18.884,8.857 24.646,13.576 0.093,0.087 0.202,0.158 0.323,0.211 0.427,0.186 0.928,0.095 1.265,-0.219 5.696,-4.661 18.259,-13.567 24.653,-13.567 1.517,0 2.649,0.221 2.66,0.223 0.497,0.099 1.012,-0.14 1.252,-0.592 0.242,-0.452 0.16,-1.008 -0.202,-1.37 -0.162,-0.162 -0.329,-0.332 -0.499,-0.508 -1.677,-1.719 -3.972,-4.074 -7.861,-4.074 h -5.578 v -6.808 c 2.457,-1.475 7.798,-4.401 10.052,-4.401 1.555,0 2.735,0.143 2.747,0.144 0.537,0.074 1.064,-0.258 1.241,-0.777 0.178,-0.52 -0.031,-1.093 -0.504,-1.375 -0.341,-0.204 -0.701,-0.465 -1.09,-0.746 -1.571,-1.134 -3.721,-2.686 -7.043,-2.686 h -5.403 v -6.996 c 2.457,-1.475 7.798,-4.402 10.052,-4.402 1.561,0 2.745,0.133 2.757,0.135 0.541,0.054 1.059,-0.265 1.233,-0.785 0.174,-0.521 -0.038,-1.092 -0.51,-1.37 -0.376,-0.223 -0.857,-0.654 -1.366,-1.112 -1.524,-1.371 -3.611,-3.248 -6.763,-3.248 h -5.403 v -32.364 l 15.172,-0.008 v 71.688 c 0,0.642 0.521,1.162 1.163,1.162 h 25.185 c 0.641,0 1.162,-0.52 1.162,-1.162 v -53.699 h 1.906 v 23.118 c 0,0.642 0.521,1.162 1.162,1.162 h 1.707 v 1.743 c 0,0.643 0.521,1.162 1.162,1.162 h 19.453 c 0.642,0 1.162,-0.519 1.162,-1.162 v -1.743 h 1.7 c 0.641,0 1.162,-0.52 1.162,-1.162 z"
         style="fill:#231f20;fill-opacity:1;fill-rule:nonzero;stroke:none"
         id="path106" />
    </g>
    <path
       d="m 132.42048,90.203122 h -0.81985 v -6.338 h 0.81985 z"
       style="fill:#231f20;fill-opacity:1;fill-rule:nonzero;stroke:none;stroke-width:0.352778"
       id="path108" />
    <g
       id="g110"
       transform="matrix(0.35277777,0,0,-0.35277777,165.38559,99.553532)">
      <path
         d="m 0,0 c -2.019,0 -3.66,-1.642 -3.66,-3.66 0,-2.018 1.641,-3.66 3.66,-3.66 2.019,0 3.661,1.642 3.661,3.66 C 3.661,-1.642 2.019,0 0,0 m 0,-9.645 c -3.3,0 -5.984,2.685 -5.984,5.985 0,3.3 2.684,5.984 5.984,5.984 3.301,0 5.985,-2.684 5.985,-5.984 0,-3.3 -2.684,-5.985 -5.985,-5.985"
         style="fill:#231f20;fill-opacity:1;fill-rule:nonzero;stroke:none"
         id="path112" />
    </g>
    <g
       id="g114"
       transform="matrix(0.35277777,0,0,-0.35277777,171.53578,99.553532)">
      <path
         d="m 0,0 c -2.019,0 -3.66,-1.642 -3.66,-3.66 0,-2.018 1.641,-3.66 3.66,-3.66 2.019,0 3.661,1.642 3.661,3.66 C 3.661,-1.642 2.019,0 0,0 m 0,-9.645 c -3.3,0 -5.984,2.685 -5.984,5.985 0,3.3 2.684,5.984 5.984,5.984 3.301,0 5.985,-2.684 5.985,-5.984 0,-3.3 -2.684,-5.985 -5.985,-5.985"
         style="fill:#231f20;fill-opacity:1;fill-rule:nonzero;stroke:none"
         id="path116" />
    </g>
    <g
       id="g118"
       transform="matrix(0.35277777,0,0,-0.35277777,174.80345,101.25505)">
      <path
         d="m 0,0 h -4.439 v 2.325 h 3.277 V 8.792 H -35.709 V 2.325 h 4.19 V 0 h -5.352 c -0.642,0 -1.162,0.521 -1.162,1.162 v 8.792 c 0,0.643 0.52,1.162 1.162,1.162 H 0 c 0.642,0 1.162,-0.519 1.162,-1.162 V 1.162 C 1.162,0.521 0.642,0 0,0"
         style="fill:#231f20;fill-opacity:1;fill-rule:nonzero;stroke:none"
         id="path120" />
    </g>
    <path
       d="m 169.83468,101.25495 h -2.74743 v -0.82021 h 2.74743 z"
       style="fill:#231f20;fill-opacity:1;fill-rule:nonzero;stroke:none;stroke-width:0.352778"
       id="path122" />
    <path
       d="m 165.19213,97.333472 h 6.21559 v -2.57457 h -6.21559 z m 6.62552,0.81985 h -7.0358 c -0.22613,0 -0.40993,-0.18344 -0.40993,-0.40992 v -3.39443 c 0,-0.22613 0.1838,-0.40993 0.40993,-0.40993 h 7.0358 c 0.22613,0 0.40992,0.1838 0.40992,0.40993 v 3.39443 c 0,0.22648 -0.18379,0.40992 -0.40992,0.40992"
       style="fill:#231f20;fill-opacity:1;fill-rule:nonzero;stroke:none;stroke-width:0.352778"
       id="path124" />
    <path
       d="m 237.82131,79.794062 h -0.81986 v -2.68781 h 0.81986 z"
       style="fill:#231f20;fill-opacity:1;fill-rule:nonzero;stroke:none;stroke-width:0.352778"
       id="path126" />
    <path
       d="m 100.79184,76.745712 h -0.82021 v -2.89525 h 0.82021 z"
       style="fill:#231f20;fill-opacity:1;fill-rule:nonzero;stroke:none;stroke-width:0.352778"
       id="path128" />
    <g
       id="g130"
       transform="matrix(0.35277777,0,0,-0.35277777,119.55944,50.510546)">
      <path
         d="M 0,0 H 34.132 C 34.106,6.833 28.54,12.384 21.701,12.384 16.982,12.384 12.727,9.765 10.596,5.547 10.321,5.004 9.674,4.763 9.113,4.998 8.303,5.333 7.445,5.504 6.565,5.504 3.285,5.504 0.551,3.123 0,0 M 35.238,-2.325 H -1.264 c -0.641,0 -1.162,0.521 -1.162,1.162 0,4.958 4.033,8.991 8.991,8.991 0.834,0 1.654,-0.113 2.447,-0.338 2.656,4.478 7.43,7.218 12.689,7.218 8.136,0 14.755,-6.618 14.755,-14.754 0,-0.411 -0.02,-0.821 -0.061,-1.232 -0.06,-0.595 -0.56,-1.047 -1.157,-1.047"
         style="fill:#231f20;fill-opacity:1;fill-rule:nonzero;stroke:none"
         id="path132" />
    </g>
    <g
       id="g134"
       transform="matrix(0.35277777,0,0,-0.35277777,170.34551,66.43049)">
      <path
         d="M 0,0 H 27.266 C 26.376,1.573 24.698,2.584 22.799,2.584 22.049,2.584 21.297,2.417 20.626,2.1 20.284,1.942 19.888,1.955 19.561,2.138 19.233,2.323 19.015,2.654 18.975,3.028 18.587,6.655 15.534,9.39 11.874,9.39 8.412,9.39 5.456,6.926 4.846,3.531 4.79,3.225 4.614,2.954 4.357,2.777 4.123,2.618 3.831,2.55 3.559,2.584 1.893,2.573 0.488,1.491 0,0 M 28.944,-2.324 H -1.347 c -0.641,0 -1.162,0.52 -1.162,1.162 0,3.079 2.304,5.629 5.279,6.019 1.141,4.025 4.833,6.857 9.104,6.857 4.361,0 8.072,-2.932 9.15,-7.021 0.58,0.143 1.178,0.216 1.775,0.216 3.518,0 6.512,-2.392 7.28,-5.817 0.077,-0.344 -0.007,-0.704 -0.227,-0.98 -0.221,-0.276 -0.554,-0.436 -0.908,-0.436"
         style="fill:#231f20;fill-opacity:1;fill-rule:nonzero;stroke:none"
         id="path136" />
    </g>
    <g
       id="g138"
       transform="matrix(0.35277777,0,0,-0.35277777,65.680396,173.44806)">
      <path
         d="M 0,0 H -2.667 C -2.95,0 -3.192,0.082 -3.395,0.323 L -22.826,27.472 V 0.605 C -22.826,0.202 -22.988,0 -23.392,0 h -2.586 c -0.364,0 -0.565,0.202 -0.565,0.605 v 32.401 c 0,0.486 0.242,0.767 0.728,0.767 h 2.382 c 0.283,0 0.486,-0.121 0.687,-0.363 L -2.95,5.979 v 27.35 c 0,0.405 0.202,0.608 0.606,0.608 h 2.545 c 0.364,0 0.567,-0.285 0.567,-0.647 V 0.769 C 0.768,0.323 0.524,0 0,0"
         style="fill:#231f20;fill-opacity:1;fill-rule:nonzero;stroke:none"
         id="path140" />
    </g>
    <path
       d="m 78.950308,162.84465 h -7.326136 v 9.27841 h 7.326136 z m 0.997303,10.57452 h -9.335558 c -0.227542,0 -0.327378,-0.0991 -0.327378,-0.34149 v -11.188 c 0,-0.242 0.09984,-0.3563 0.327378,-0.3563 h 9.335558 c 0.227894,0 0.342194,0.1143 0.342194,0.3563 v 11.188 c 0,0.24236 -0.1143,0.34149 -0.342194,0.34149"
       style="fill:#231f20;fill-opacity:1;fill-rule:nonzero;stroke:none;stroke-width:0.352778"
       id="path142" />
    <g
       id="g144"
       transform="matrix(0.35277777,0,0,-0.35277777,100.60007,163.45693)">
      <path
         d="m 0,0 -1.938,1.938 h -18.02 v -26.582 h 18.02 L 0,-22.747 Z m 3.596,-24.362 -3.636,-3.596 c -0.243,-0.203 -0.525,-0.281 -0.808,-0.281 h -21.937 c -0.648,0 -0.969,0.281 -0.969,0.885 V 4.645 c 0,0.647 0.321,0.97 0.969,0.97 H -0.767 C -0.444,5.615 -0.201,5.534 0,5.292 L 3.596,1.654 C 3.798,1.454 3.96,1.212 3.96,0.889 v -24.402 c 0,-0.324 -0.162,-0.607 -0.364,-0.849"
         style="fill:#231f20;fill-opacity:1;fill-rule:nonzero;stroke:none"
         id="path146" />
    </g>
    <path
       d="m 114.69622,162.84465 h -7.02627 v 4.10422 h 7.02627 z m 1.29716,10.63202 h -1.05445 c -0.10019,0 -0.18556,-0.0286 -0.24271,-0.12771 l -3.19264,-5.11669 h -3.83363 v 5.03097 c 0,0.15593 -0.0716,0.21343 -0.19968,0.21343 h -0.92639 c -0.14252,0 -0.21378,-0.0575 -0.21378,-0.19932 v -11.40248 c 0,-0.22719 0.0995,-0.34149 0.34219,-0.34149 h 9.02194 c 0.22754,0 0.34184,0.1143 0.34184,0.34149 v 6.01486 c 0,0.2286 -0.1143,0.34254 -0.34184,0.34254 h -2.7365 l 3.22086,4.95971 c 0.0427,0.0713 0.0713,0.12806 0.0713,0.15698 0,0.0991 -0.0998,0.12771 -0.25647,0.12771"
       style="fill:#231f20;fill-opacity:1;fill-rule:nonzero;stroke:none;stroke-width:0.352778"
       id="path148" />
    <g
       id="g150"
       transform="matrix(0.35277777,0,0,-0.35277777,121.85147,173.4343)">
      <path
         d="M 0,0 H -2.626 C -3.03,0 -3.233,0.163 -3.233,0.566 v 32.685 c 0,0.362 0.162,0.565 0.607,0.565 H 0 c 0.444,0 0.646,-0.203 0.646,-0.647 V 0.566 C 0.646,0.163 0.404,0 0,0"
         style="fill:#231f20;fill-opacity:1;fill-rule:nonzero;stroke:none"
         id="path152" />
    </g>
    <g
       id="g154"
       transform="matrix(0.35277777,0,0,-0.35277777,135.84733,173.44806)">
      <path
         d="M 0,0 H -2.667 C -2.95,0 -3.192,0.082 -3.395,0.323 L -22.826,27.472 V 0.605 C -22.826,0.202 -22.988,0 -23.392,0 h -2.586 c -0.364,0 -0.565,0.202 -0.565,0.605 v 32.401 c 0,0.486 0.242,0.767 0.728,0.767 h 2.382 c 0.283,0 0.486,-0.121 0.687,-0.363 L -2.95,5.979 v 27.35 c 0,0.405 0.202,0.608 0.606,0.608 h 2.545 c 0.364,0 0.567,-0.285 0.567,-0.647 V 0.769 C 0.768,0.323 0.524,0 0,0"
         style="fill:#231f20;fill-opacity:1;fill-rule:nonzero;stroke:none"
         id="path156" />
    </g>
    <g
       id="g158"
       transform="matrix(0.35277777,0,0,-0.35277777,149.92951,173.44806)">
      <path
         d="M 0,0 H -3.556 C -3.878,0 -4.04,0.121 -4.161,0.242 l -14.787,15.354 h -4.121 V 0.484 c 0,-0.402 -0.202,-0.565 -0.566,-0.565 h -2.626 c -0.404,0 -0.605,0.163 -0.605,0.565 v 32.724 c 0,0.444 0.201,0.647 0.565,0.647 h 2.666 c 0.364,0 0.566,-0.242 0.566,-0.647 V 19.23 h 4.081 l 14.382,14.262 c 0.202,0.242 0.322,0.363 0.605,0.363 h 3.637 c 0.241,0 0.404,-0.082 0.404,-0.242 0,-0.121 -0.04,-0.242 -0.202,-0.405 L -15.958,17.492 0.283,0.726 C 0.404,0.605 0.484,0.484 0.484,0.363 0.484,0.16 0.283,0 0,0"
         style="fill:#231f20;fill-opacity:1;fill-rule:nonzero;stroke:none"
         id="path160" />
    </g>
    <g
       id="g162"
       transform="matrix(0.35277777,0,0,-0.35277777,156.21439,173.46288)">
      <path
         d="m 0,0 -1.089,-3.19 c -0.082,-0.282 -0.245,-0.364 -0.568,-0.364 h -1.737 c -0.323,0 -0.483,0.121 -0.323,0.524 l 1.173,3.232 h -2.061 c -0.687,0 -0.969,0.284 -0.969,0.929 V 3.84 c 0,0.605 0.282,0.929 0.928,0.929 h 3.799 c 0.644,0 0.968,-0.324 0.968,-0.929 V 0.565 C 0.121,0.365 0.081,0.163 0,0"
         style="fill:#231f20;fill-opacity:1;fill-rule:nonzero;stroke:none"
         id="path164" />
    </g>
    <g
       id="g166"
       transform="matrix(0.35277777,0,0,-0.35277777,177.50749,173.44806)">
      <path
         d="M 0,0 H -2.665 C -2.949,0 -3.19,0.082 -3.394,0.323 L -22.826,27.472 V 0.605 C -22.826,0.202 -22.986,0 -23.392,0 h -2.586 c -0.363,0 -0.565,0.202 -0.565,0.605 v 32.401 c 0,0.486 0.242,0.767 0.729,0.767 h 2.382 c 0.285,0 0.485,-0.121 0.687,-0.363 L -2.949,5.979 v 27.35 c 0,0.405 0.203,0.608 0.608,0.608 h 2.543 c 0.363,0 0.566,-0.285 0.566,-0.647 V 0.769 C 0.768,0.323 0.526,0 0,0"
         style="fill:#231f20;fill-opacity:1;fill-rule:nonzero;stroke:none"
         id="path168" />
    </g>
    <path
       d="m 190.77769,162.84465 h -7.32614 v 9.27841 h 7.32614 z m 0.99765,10.57452 h -9.3352 c -0.2279,0 -0.32844,-0.0991 -0.32844,-0.34149 v -11.188 c 0,-0.242 0.10054,-0.3563 0.32844,-0.3563 h 9.3352 c 0.22825,0 0.34255,0.1143 0.34255,0.3563 v 11.188 c 0,0.24236 -0.1143,0.34149 -0.34255,0.34149"
       style="fill:#231f20;fill-opacity:1;fill-rule:nonzero;stroke:none;stroke-width:0.352778"
       id="path170" />
    <g
       id="g172"
       transform="matrix(0.35277777,0,0,-0.35277777,213.63899,173.47667)">
      <path
         d="m 0,0 h -2.543 c -0.405,0 -0.689,0.163 -0.689,0.565 v 15.272 h -20.16 V 0.565 C -23.392,0.163 -23.552,0 -23.957,0 h -2.625 c -0.365,0 -0.607,0.163 -0.607,0.565 V 33.41 c 0,0.405 0.163,0.608 0.607,0.608 h 2.625 c 0.405,0 0.565,-0.285 0.565,-0.608 V 19.472 h 20.16 V 33.41 c 0,0.405 0.202,0.608 0.607,0.608 h 2.544 c 0.404,0 0.607,-0.285 0.607,-0.608 V 0.565 C 0.526,0.163 0.405,0 0,0"
         style="fill:#231f20;fill-opacity:1;fill-rule:nonzero;stroke:none"
         id="path174" />
    </g>
    <path
       d="m 226.65201,162.82984 h -7.14128 v 4.77484 h 7.14128 z m 1.11196,10.64683 h -0.91229 c -0.15698,0 -0.19967,-0.0423 -0.19967,-0.19932 v -4.38997 h -7.14128 v 4.38997 c 0,0.14182 -0.0702,0.19932 -0.21308,0.19932 h -0.91228 c -0.14323,0 -0.21343,-0.0575 -0.21343,-0.19932 v -11.41624 c 0,-0.22825 0.0995,-0.32773 0.32738,-0.32773 h 9.15035 c 0.21343,0 0.32773,0.1143 0.32773,0.3563 v 11.38767 c 0,0.14182 -0.0568,0.19932 -0.21343,0.19932"
       style="fill:#231f20;fill-opacity:1;fill-rule:nonzero;stroke:none;stroke-width:0.352778"
       id="path176" />
    <g
       id="g178"
       transform="matrix(0.35277777,0,0,-0.35277777,241.85913,173.40534)">
      <path
         d="m 0,0 h -26.178 c -0.646,0 -0.93,0.242 -0.93,0.929 v 31.795 c 0,0.605 0.284,0.928 0.888,0.928 h 25.818 c 0.686,0 1.009,-0.323 1.009,-1.009 v -9.29 C 0.607,22.947 0.405,22.786 0,22.786 h -2.625 c -0.363,0 -0.565,0.161 -0.565,0.567 v 6.625 H -23.271 V 3.677 H 0 c 0.444,0 0.607,-0.244 0.607,-0.608 V 0.526 C 0.607,0.16 0.444,0 0,0"
         style="fill:#231f20;fill-opacity:1;fill-rule:nonzero;stroke:none"
         id="path180" />
    </g>
    <g
       id="g182"
       transform="matrix(0.35277777,0,0,-0.35277777,255.84106,173.44806)">
      <path
         d="M 0,0 H -3.554 C -3.877,0 -4.04,0.121 -4.161,0.242 l -14.785,15.354 h -4.122 V 0.484 c 0,-0.402 -0.203,-0.565 -0.566,-0.565 h -2.625 c -0.405,0 -0.607,0.163 -0.607,0.565 v 32.724 c 0,0.444 0.202,0.647 0.565,0.647 h 2.667 c 0.363,0 0.566,-0.242 0.566,-0.647 V 19.23 h 4.08 l 14.383,14.262 c 0.202,0.242 0.323,0.363 0.607,0.363 h 3.635 c 0.242,0 0.405,-0.082 0.405,-0.242 C 0.042,33.492 0,33.371 -0.16,33.208 L -15.958,17.492 0.284,0.726 C 0.405,0.605 0.486,0.484 0.486,0.363 0.486,0.16 0.284,0 0,0"
         style="fill:#231f20;fill-opacity:1;fill-rule:nonzero;stroke:none"
         id="path184" />
    </g>
    <g
       id="g186"
       transform="matrix(0.35277777,0,0,-0.35277777,261.78522,173.4343)">
      <path
         d="m 0,0 h -3.638 c -0.686,0 -0.967,0.284 -0.967,0.929 v 2.788 c 0,0.647 0.281,0.97 0.967,0.97 H 0 c 0.645,0 0.969,-0.323 0.969,-1.009 V 0.929 C 0.969,0.284 0.645,0 0,0"
         style="fill:#231f20;fill-opacity:1;fill-rule:nonzero;stroke:none"
         id="path188" />
    </g>
    <g
       id="g190"
       transform="matrix(0.35277777,0,0,-0.35277777,151.64483,60.168332)">
      <path
         d="M 0,0 C -23.141,14.701 -46.283,14.701 -46.283,14.701 -5.785,-14.703 0,-63.707 0,-63.707 M 0,0 C 23.142,14.701 46.282,14.701 46.282,14.701 5.785,-14.703 0,-63.707 0,-63.707"
         style="fill:#ffffff;fill-opacity:1;fill-rule:nonzero;stroke:#231f20;stroke-width:2.155;stroke-linecap:butt;stroke-linejoin:miter;stroke-miterlimit:10;stroke-dasharray:none;stroke-opacity:1"
         id="path192" />
    </g>
  </g>
</svg>
