#define battery25_width 25
#define battery25_height 15
static unsigned char battery25_bits[] = {
   0x01, 0x00, 0xc0, 0x01, 0x7e, 0x7f, 0xbf, 0x01, 0x7e, 0x7f, 0xbf, 0x01,
   0xfc, 0xfe, 0xbe, 0x01, 0xfc, 0xfe, 0xbe, 0x01, 0xf8, 0xfd, 0x3d, 0x01,
   0xf8, 0xfd, 0xfd, 0x00, 0xf0, 0xfb, 0xfb, 0x00, 0xf0, 0xfb, 0xfb, 0x00,
   0xe0, 0xf7, 0x37, 0x01, 0xe0, 0xf7, 0xb7, 0x01, 0xc0, 0xef, 0xaf, 0x01,
   0xc0, 0xef, 0xaf, 0x01, 0x80, 0xdf, 0x9f, 0x01, 0x01, 0x00, 0xc0, 0x01 };
