#define battery100_width 25
#define battery100_height 15
static unsigned char battery100_bits[] = {
   0x01, 0x00, 0xc0, 0x01, 0x00, 0x00, 0x80, 0x01, 0x00, 0x00, 0x80, 0x01,
   0x00, 0x00, 0x80, 0x01, 0x00, 0x00, 0x80, 0x01, 0x00, 0x00, 0x00, 0x01,
   0x00, 0x00, 0x00, 0x00, 0x00, 0x00, 0x00, 0x00, 0x00, 0x00, 0x00, 0x00,
   0x00, 0x00, 0x00, 0x01, 0x00, 0x00, 0x80, 0x01, 0x00, 0x00, 0x80, 0x01,
   0x00, 0x00, 0x80, 0x01, 0x00, 0x00, 0x80, 0x01, 0x01, 0x00, 0xc0, 0x01 };
