#define BatteryVert_75_width 15
#define BatteryVert_75_height 25
static unsigned char BatteryVert_75_bits[] = {
   0xe0, 0x03, 0x10, 0x04, 0x1e, 0x3c, 0x01, 0x40, 0x01, 0x40, 0x01, 0x40,
   0xff, 0x7f, 0x01, 0x40, 0xfd, 0x5f, 0xfd, 0x5f, 0xfd, 0x5f, 0x01, 0x40,
   0xff, 0x7f, 0x01, 0x40, 0xfd, 0x5f, 0xfd, 0x5f, 0xfd, 0x5f, 0x01, 0x40,
   0xff, 0x7f, 0x01, 0x40, 0xfd, 0x5f, 0xfd, 0x5f, 0xfd, 0x5f, 0x01, 0x40,
   0xfe, 0x3f };
