#define battery0_width 25
#define battery0_height 15
static unsigned char battery0_bits[] = {
   0x01, 0x00, 0xc0, 0x01, 0x7e, 0x7f, 0xbf, 0x01, 0x7e, 0x7f, 0xbf, 0x01,
   0xfc, 0xfe, 0xbe, 0x01, 0xfc, 0xfe, 0xbe, 0x01, 0xfa, 0xfd, 0x3d, 0x01,
   0xfa, 0xfd, 0xfd, 0x00, 0xf6, 0xfb, 0xfb, 0x00, 0xf6, 0xfb, 0xfb, 0x00,
   0xee, 0xf7, 0x37, 0x01, 0xee, 0xf7, 0xb7, 0x01, 0xde, 0xef, 0xaf, 0x01,
   0xde, 0xef, 0xaf, 0x01, 0xbe, 0xdf, 0x9f, 0x01, 0x01, 0x00, 0xc0, 0x01 };
