#define battery50_width 25
#define battery50_height 15
static unsigned char battery50_bits[] = {
   0x01, 0x00, 0xc0, 0x01, 0x00, 0x7f, 0xbf, 0x01, 0x00, 0x7f, 0xbf, 0x01,
   0x00, 0xfe, 0xbe, 0x01, 0x00, 0xfe, 0xbe, 0x01, 0x00, 0xfc, 0x3d, 0x01,
   0x00, 0xfc, 0xfd, 0x00, 0x00, 0xf8, 0xfb, 0x00, 0x00, 0xf8, 0xfb, 0x00,
   0x00, 0xf0, 0x37, 0x01, 0x00, 0xf0, 0xb7, 0x01, 0x00, 0xe0, 0xaf, 0x01,
   0x00, 0xe0, 0xaf, 0x01, 0x00, 0xc0, 0x9f, 0x01, 0x01, 0x00, 0xc0, 0x01 };
