#define Connection_none_width 16
#define Connection_none_height 12
static unsigned char Connection_none_bits[] = {
	  0xfe, 0x7f, 0x01, 0x80, 0x55, 0x95, 0xa9, 0xaa, 0x55, 0x95, 0xa9, 0xaa,
   0x55, 0x95, 0xa9, 0xaa, 0x55, 0x95, 0xa9, 0xaa, 0x01, 0x80, 0xfe, 0x7f 
};