#define Connectioned_width 16
#define Connectioned_height 12
static unsigned char Connectioned_bits[] = {
	0xfe, 0x7f, 0x01, 0x80, 0x6d, 0x96, 0x01, 0x80, 0x7d, 0x9b, 0x01, 0x80,
   0x01, 0x80, 0x01, 0x80, 0x01, 0x80, 0x81, 0x81, 0x01, 0x80, 0xfe, 0x7f 
};