#define WiFi_Three_width 16
#define WiFi_Three_height 12
static unsigned char WiFi_Three_bits[] = {
	0x00, 0x00, 0x00, 0x00, 0x00, 0x00, 0x00, 0x00, 0x00, 0x00, 0xc0, 0x03,
   0x30, 0x0c, 0x08, 0x10, 0xc0, 0x03, 0x20, 0x04, 0x80, 0x01, 0x80, 0x01 
};