#define WiFi_notConnected_width 16
#define WiFi_notConnected_height 12
static unsigned char WiFi_notConnected_bits[] = {
	0x00, 0x00, 0x00, 0x00, 0xc0, 0x03, 0x30, 0x0c, 0x0c, 0x30, 0x02, 0x40,
	0x04, 0x20, 0x08, 0x10, 0x10, 0x08, 0x20, 0x04, 0x40, 0x02, 0x80, 0x01 
};