#define WiFi_four_width 16
#define WiFi_four_height 12
static unsigned char WiFi_four_bits[] = {
	 0x00, 0x00, 0x00, 0x00, 0xc0, 0x03, 0x30, 0x0c, 0x0c, 0x30, 0xc2, 0x43,
   0x30, 0x0c, 0x08, 0x10, 0xc0, 0x03, 0x20, 0x04, 0x80, 0x01, 0x80, 0x01 
};